<svg width="404" height="365" viewBox="0 0 404 365" fill="none" xmlns="http://www.w3.org/2000/svg">
<path d="M0.772728 182.841V165.227C16.5871 165.227 27.6193 161.913 33.8693 155.284C40.214 148.655 43.3864 137.576 43.3864 122.045V76.5909C43.3864 63.5227 44.6174 52.2064 47.0795 42.642C49.6364 33.0776 53.7557 25.1705 59.4375 18.9205C65.1193 12.6705 72.6951 8.0303 82.1648 5C91.6345 1.96968 103.33 0.454526 117.25 0.454526V28.2955C106.265 28.2955 97.6004 30 91.2557 33.4091C85.0057 36.8182 80.5549 42.1212 77.9034 49.3182C75.3466 56.4204 74.0682 65.5114 74.0682 76.5909V133.409C74.0682 140.795 73.0739 147.519 71.0852 153.58C69.1913 159.64 65.6402 164.848 60.4318 169.205C55.2235 173.561 47.7898 176.922 38.1307 179.29C28.5663 181.657 16.1136 182.841 0.772728 182.841ZM117.25 364.091C103.33 364.091 91.6345 362.576 82.1648 359.545C72.6951 356.515 65.1193 351.875 59.4375 345.625C53.7557 339.375 49.6364 331.468 47.0795 321.903C44.6174 312.339 43.3864 301.023 43.3864 287.955V242.5C43.3864 226.97 40.214 215.89 33.8693 209.261C27.6193 202.633 16.5871 199.318 0.772728 199.318V181.705C16.1136 181.705 28.5663 182.888 38.1307 185.256C47.7898 187.623 55.2235 190.985 60.4318 195.341C65.6402 199.697 69.1913 204.905 71.0852 210.966C73.0739 217.027 74.0682 223.75 74.0682 231.136V287.955C74.0682 299.034 75.3466 308.125 77.9034 315.227C80.5549 322.33 85.0057 327.585 91.2557 330.994C97.6004 334.498 106.265 336.25 117.25 336.25V364.091ZM0.772728 199.318V165.227H34.2955V199.318H0.772728ZM403.614 181.705V199.318C387.799 199.318 376.72 202.633 370.375 209.261C364.125 215.89 361 226.97 361 242.5V287.955C361 301.023 359.722 312.339 357.165 321.903C354.703 331.468 350.631 339.375 344.949 345.625C339.267 351.875 331.691 356.515 322.222 359.545C312.752 362.576 301.057 364.091 287.136 364.091V336.25C298.121 336.25 306.739 334.498 312.989 330.994C319.333 327.585 323.784 322.33 326.341 315.227C328.992 308.125 330.318 299.034 330.318 287.955V231.136C330.318 223.75 331.265 217.027 333.159 210.966C335.148 204.905 338.746 199.697 343.955 195.341C349.163 190.985 356.549 187.623 366.114 185.256C375.773 182.888 388.273 181.705 403.614 181.705ZM287.136 0.454526C301.057 0.454526 312.752 1.96968 322.222 5C331.691 8.0303 339.267 12.6705 344.949 18.9205C350.631 25.1705 354.703 33.0776 357.165 42.642C359.722 52.2064 361 63.5227 361 76.5909V122.045C361 137.576 364.125 148.655 370.375 155.284C376.72 161.913 387.799 165.227 403.614 165.227V182.841C388.273 182.841 375.773 181.657 366.114 179.29C356.549 176.922 349.163 173.561 343.955 169.205C338.746 164.848 335.148 159.64 333.159 153.58C331.265 147.519 330.318 140.795 330.318 133.409V76.5909C330.318 65.5114 328.992 56.4204 326.341 49.3182C323.784 42.1212 319.333 36.8182 312.989 33.4091C306.739 30 298.121 28.2955 287.136 28.2955V0.454526ZM403.614 165.227V199.318H370.091V165.227H403.614Z" fill="#FF2B5C"/>
<path d="M264.445 0.454526L170.695 348.75H140.013L233.763 0.454526H264.445Z" fill="#4CB0F5"/>
</svg>
